#define asd_width 128
#define asd_height 64
static unsigned char asd_bits[] = {
   0x00, 0x00, 0x1c, 0x00, 0x00, 0x00, 0xe0, 0xff, 0xff, 0xff, 0x3f, 0x00,
   0x00, 0x80, 0x03, 0x00, 0x00, 0x00, 0x1c, 0x00, 0x00, 0x00, 0xf0, 0x07,
   0x00, 0xe0, 0xff, 0x00, 0x00, 0x80, 0x03, 0x00, 0x00, 0x00, 0x0e, 0x00,
   0x00, 0x00, 0x7e, 0x00, 0x00, 0xe0, 0xff, 0x03, 0x00, 0x00, 0x07, 0x00,
   0x00, 0x00, 0x0e, 0x00, 0x00, 0x80, 0x1f, 0x00, 0x00, 0xe0, 0xff, 0x0f,
   0x00, 0x00, 0x07, 0x00, 0x00, 0x00, 0x0e, 0x00, 0x00, 0xe0, 0x07, 0x00,
   0x00, 0xc0, 0xff, 0x3f, 0x00, 0x00, 0x07, 0x00, 0x00, 0x00, 0x0e, 0x00,
   0x00, 0xf0, 0x01, 0x00, 0x00, 0xc0, 0xf3, 0x7f, 0x00, 0x00, 0x07, 0x00,
   0x00, 0x00, 0x0e, 0x00, 0x00, 0x7c, 0x00, 0x00, 0x00, 0xc0, 0x01, 0xff,
   0x01, 0x00, 0x07, 0x00, 0x00, 0x00, 0x0e, 0x00, 0x80, 0x3f, 0x00, 0x00,
   0x00, 0xc0, 0x01, 0xfc, 0x07, 0x00, 0x07, 0x00, 0x00, 0x00, 0x07, 0x00,
   0xf0, 0x0f, 0x00, 0x00, 0x00, 0xc0, 0x01, 0xf0, 0x1f, 0x00, 0x07, 0x00,
   0x00, 0x00, 0x07, 0x80, 0xff, 0x0f, 0x00, 0x00, 0x00, 0xc0, 0x01, 0xc0,
   0x7f, 0x00, 0x0f, 0x00, 0x00, 0x00, 0x07, 0xfc, 0x3f, 0x0f, 0x00, 0x00,
   0x00, 0xe0, 0x01, 0x80, 0xff, 0x81, 0x3f, 0x00, 0x00, 0x00, 0xe7, 0xff,
   0x0f, 0x0e, 0x00, 0x00, 0x00, 0xe0, 0x01, 0x80, 0xff, 0xf7, 0xff, 0x00,
   0x00, 0x00, 0xff, 0xff, 0x0f, 0x0c, 0x00, 0x00, 0x00, 0xe0, 0x01, 0x00,
   0xff, 0x7f, 0xf0, 0x00, 0x00, 0x00, 0xff, 0x81, 0x07, 0x1c, 0x00, 0x00,
   0x00, 0xe0, 0x00, 0x00, 0xff, 0x0f, 0xe0, 0x01, 0x00, 0xe0, 0x3f, 0x80,
   0x07, 0x1c, 0x00, 0x00, 0x00, 0xe0, 0x00, 0x00, 0xff, 0x07, 0xc0, 0x01,
   0x00, 0xf0, 0x03, 0x80, 0x07, 0x18, 0x00, 0x00, 0x00, 0xf8, 0x00, 0x00,
   0xff, 0xc3, 0x8f, 0x03, 0x00, 0xfc, 0x00, 0x00, 0x07, 0x38, 0x00, 0x00,
   0x00, 0x3e, 0x00, 0x00, 0xff, 0xe3, 0x9f, 0x03, 0x00, 0x3e, 0x00, 0x00,
   0x07, 0x30, 0x00, 0x00, 0xc0, 0x0f, 0x00, 0x00, 0xff, 0x63, 0x9c, 0x03,
   0x00, 0x0f, 0x00, 0x80, 0x03, 0x70, 0x00, 0x00, 0xf0, 0x03, 0x00, 0x00,
   0xff, 0x31, 0xb8, 0x03, 0x80, 0x07, 0x00, 0xc0, 0x01, 0xe0, 0x00, 0x00,
   0x7f, 0x00, 0x00, 0x00, 0xff, 0x11, 0x70, 0x07, 0x80, 0x03, 0x00, 0xe0,
   0x01, 0xe0, 0x00, 0xf0, 0x1f, 0x00, 0x00, 0x00, 0xff, 0x11, 0x70, 0x07,
   0x80, 0x03, 0x00, 0x70, 0x00, 0xc0, 0xff, 0xff, 0x03, 0x00, 0x00, 0x00,
   0xff, 0x11, 0x70, 0x07, 0x80, 0x03, 0x00, 0x78, 0x00, 0xc0, 0xff, 0x3f,
   0x00, 0x00, 0x00, 0x00, 0xff, 0x18, 0x60, 0x07, 0x80, 0x03, 0x00, 0x1c,
   0x00, 0x00, 0xff, 0x07, 0x00, 0x00, 0x00, 0x00, 0xff, 0x18, 0x60, 0x07,
   0x00, 0x03, 0x00, 0x0e, 0x00, 0x00, 0x00, 0x00, 0x00, 0x00, 0x00, 0x00,
   0xff, 0x38, 0x60, 0x07, 0x00, 0x03, 0x00, 0x07, 0x00, 0x00, 0x00, 0x00,
   0x00, 0x00, 0x00, 0x00, 0xff, 0x38, 0x60, 0x07, 0x00, 0x07, 0x80, 0x03,
   0x00, 0x02, 0x00, 0x00, 0x00, 0x00, 0x00, 0x00, 0xff, 0x78, 0x20, 0x07,
   0x00, 0x06, 0xc0, 0x01, 0x00, 0x06, 0x00, 0x00, 0x00, 0x00, 0x00, 0x00,
   0xfe, 0x7c, 0x00, 0x07, 0x00, 0x06, 0xe0, 0x00, 0x00, 0x0c, 0x00, 0x00,
   0x00, 0x00, 0x00, 0x00, 0xfe, 0x7c, 0x00, 0x07, 0x00, 0x0c, 0xe0, 0x00,
   0x00, 0x18, 0x00, 0x00, 0x00, 0x00, 0x00, 0x00, 0xfe, 0x7c, 0x00, 0x07,
   0x00, 0x0c, 0x70, 0x00, 0x00, 0x30, 0x00, 0x00, 0x00, 0x00, 0x00, 0x00,
   0xfe, 0x3d, 0x00, 0x07, 0x00, 0xfc, 0x7f, 0x00, 0x00, 0xe0, 0x00, 0x00,
   0x00, 0x00, 0x00, 0x00, 0xfe, 0x3d, 0x80, 0x07, 0x00, 0xf8, 0x7f, 0x00,
   0x00, 0xc0, 0x00, 0x00, 0x00, 0x00, 0x00, 0x00, 0xfe, 0x1d, 0x00, 0x07,
   0x00, 0xf0, 0x7f, 0x00, 0x00, 0x80, 0x03, 0x00, 0x00, 0x00, 0x00, 0x00,
   0xfe, 0x1f, 0x80, 0x03, 0x00, 0x00, 0x7c, 0x00, 0x00, 0x00, 0x03, 0x00,
   0x00, 0x00, 0x00, 0x00, 0xfe, 0x0f, 0x80, 0x03, 0x00, 0x00, 0x7c, 0x00,
   0x00, 0x00, 0x06, 0x00, 0x00, 0x00, 0x00, 0x00, 0xfe, 0x0f, 0x80, 0x03,
   0x00, 0x00, 0x78, 0x00, 0x00, 0x00, 0x0e, 0x00, 0x00, 0x00, 0x00, 0x00,
   0xfe, 0x07, 0xc0, 0x01, 0x00, 0x00, 0xf8, 0x00, 0xf8, 0x00, 0x1c, 0x00,
   0x00, 0x00, 0x00, 0x00, 0xfe, 0x01, 0xc0, 0x01, 0x00, 0x00, 0xf0, 0x01,
   0xfc, 0x03, 0x1c, 0x00, 0x00, 0x00, 0x00, 0x00, 0xfe, 0x01, 0xe0, 0x01,
   0x00, 0x00, 0xf8, 0x03, 0xfc, 0x0f, 0x1c, 0x00, 0x00, 0x00, 0x00, 0x00,
   0xfe, 0x01, 0xf0, 0x00, 0x00, 0x00, 0xf8, 0x07, 0x00, 0x38, 0x1c, 0x00,
   0x00, 0x00, 0x00, 0x00, 0xfe, 0x01, 0x70, 0x00, 0x00, 0x00, 0x78, 0x0e,
   0x00, 0x00, 0x1c, 0x00, 0x00, 0x00, 0x00, 0x00, 0xfe, 0x01, 0x78, 0x00,
   0x00, 0x00, 0x38, 0x1c, 0x00, 0x00, 0x1f, 0x00, 0x00, 0x00, 0x00, 0x00,
   0xff, 0x01, 0x38, 0x00, 0x00, 0x00, 0x38, 0xf8, 0xff, 0xff, 0x07, 0x00,
   0x00, 0x00, 0x00, 0x00, 0xff, 0x01, 0x1c, 0x00, 0x00, 0x00, 0x38, 0xf0,
   0xff, 0xff, 0x03, 0x00, 0x00, 0x00, 0x00, 0x80, 0xff, 0x01, 0x1e, 0x00,
   0x00, 0x00, 0x38, 0x80, 0xff, 0xff, 0x1f, 0x00, 0x00, 0x00, 0x00, 0xc0,
   0xff, 0x03, 0x0e, 0x00, 0x00, 0x00, 0x38, 0xe0, 0xff, 0xff, 0x7f, 0x00,
   0x00, 0x00, 0x00, 0xc0, 0xff, 0x8f, 0x0f, 0x00, 0x00, 0x00, 0x38, 0xfc,
   0xff, 0xff, 0xff, 0x03, 0x00, 0x00, 0x00, 0xe0, 0xff, 0xff, 0x07, 0x00,
   0x00, 0x00, 0x38, 0xff, 0xff, 0xff, 0xff, 0x07, 0x00, 0x00, 0x00, 0xf0,
   0xff, 0xff, 0x01, 0x00, 0x00, 0x00, 0xb8, 0xff, 0xff, 0xff, 0xff, 0x1f,
   0x00, 0x00, 0x00, 0xf8, 0xff, 0xfb, 0x00, 0x00, 0x00, 0x00, 0xf8, 0xff,
   0xff, 0xff, 0xff, 0x3f, 0x00, 0x00, 0x00, 0xf8, 0xff, 0x01, 0x00, 0x00,
   0x00, 0x00, 0xf8, 0xff, 0x0f, 0xfe, 0xff, 0x7f, 0x00, 0x00, 0x00, 0xfc,
   0xff, 0x01, 0x00, 0x00, 0x00, 0x00, 0xf8, 0x3f, 0x00, 0xe0, 0xff, 0xff,
   0x00, 0x00, 0x00, 0xfe, 0xff, 0x01, 0x00, 0x00, 0x00, 0x00, 0xfc, 0x0f,
   0x00, 0x00, 0xfc, 0xff, 0x01, 0x00, 0x00, 0xff, 0xff, 0x01, 0x00, 0x00,
   0x00, 0x00, 0xfc, 0x03, 0xe0, 0x3f, 0xf0, 0xff, 0x01, 0x00, 0x80, 0xff,
   0xff, 0x01, 0x00, 0x00, 0x00, 0x00, 0xfc, 0x83, 0xff, 0xff, 0xc3, 0xff,
   0x03, 0x00, 0xc0, 0xff, 0xff, 0x01, 0x00, 0x00, 0x00, 0x00, 0xfc, 0xf3,
   0x07, 0xc0, 0x8f, 0xff, 0x07, 0x00, 0xe0, 0xff, 0xff, 0x01, 0x00, 0x00,
   0x00, 0x00, 0xfc, 0x3f, 0x00, 0x00, 0xb8, 0xff, 0x07, 0x00, 0xf0, 0xff,
   0xff, 0x01, 0x00, 0x00, 0x00, 0x00, 0xfc, 0x0f, 0x00, 0x00, 0xe0, 0xfe,
   0x07, 0x00, 0xfc, 0xff, 0xff, 0x01, 0x00, 0x00, 0x00, 0x00, 0xfc, 0x07,
   0x00, 0x00, 0x80, 0xfe, 0x0f, 0x00, 0xfe, 0xff, 0xff, 0x01, 0x00, 0x00,
   0x00, 0x00, 0xf8, 0x03, 0xf8, 0x00, 0x00, 0xfc, 0x0f, 0x80, 0xff, 0xff,
   0xff, 0x01, 0x00, 0x00, 0x00, 0x00, 0xf8, 0x03, 0xf8, 0x01, 0x00, 0xfc,
   0x1f, 0xc0, 0xff, 0xff, 0xff, 0x01, 0x00, 0x00, 0x00, 0x00, 0xf8, 0x07,
   0xf8, 0x01, 0x00, 0xf8, 0x1f, 0xf0, 0xff, 0xff, 0xff, 0x01, 0x00, 0x00,
   0x00, 0x00, 0xf8, 0x07, 0xf8, 0x01, 0x00, 0xf8, 0x1f, 0xfc, 0xff, 0xff,
   0xff, 0x01, 0x00, 0x00 };
